# xmcd
#
# Track frame offsets:
#	150
#	17250
#	31673
#	47771
#	65398
#	83725
#	103501
#	123041
#	138329
#	157324
#	173569
#	189107
#	208149
#	223033
#	240553
#	254056
#	270430
#	290188
#	308414
#	327232
#
# Disc length: 4605 seconds
#
# Revision: 0
# Processed by: cddbd v1.4PL0 Copyright (c) Steve Scherf et al.
# Submitted via: dBpowerAMP V4.0
#
DISCID=1111fb14
DTITLE=Boleros - As 20 mais de Boleros em Ingles
DYEAR=1900
DGENRE=Other
TTITLE0=Nothing's gonna change my love for you
TTITLE1=Stuck you
TTITLE2=Lost in your eyes
TTITLE3=Skyline pigeon
TTITLE4=Lover why
TTITLE5=Forever by your side
TTITLE6=Must have been love
TTITLE7=Broken wings
TTITLE8=This the end
TTITLE9=Unchained melody
TTITLE10=If you don't know, me by now
TTITLE11=Take my breath a way
TTITLE12=Yes
TTITLE13=Love hurst
TTITLE14=Give me your heart tonight
TTITLE15=Coming around again
TTITLE16=I just called to say a love you
TTITLE17=Say you, say me
TTITLE18=Immortality
TTITLE19=Heaven
EXTD=
EXTT0=
EXTT1=
EXTT2=
EXTT3=
EXTT4=
EXTT5=
EXTT6=
EXTT7=
EXTT8=
EXTT9=
EXTT10=
EXTT11=
EXTT12=
EXTT13=
EXTT14=
EXTT15=
EXTT16=
EXTT17=
EXTT18=
EXTT19=
PLAYORDER=
